<svg xmlns="http://www.w3.org/2000/svg" xmlns:xlink="http://www.w3.org/1999/xlink" width="689.583" height="488.333" viewBox="0 0 689.583 488.333"><defs><linearGradient id="a" x1="0.5" y1="1" x2="0.5" gradientUnits="objectBoundingBox"><stop offset="0" stop-color="gray" stop-opacity="0.251"/><stop offset="0.54" stop-color="gray" stop-opacity="0.122"/><stop offset="1" stop-color="gray" stop-opacity="0.102"/></linearGradient><linearGradient id="b" x1="0.5" y1="1" x2="0.5" y2="0" xlink:href="#a"/></defs><g transform="translate(0.005 0.006)"><ellipse cx="60.79" cy="9.764" rx="60.79" ry="9.764" transform="translate(168.588 468.525)" fill="#6c63ff" opacity="0.1"/><ellipse cx="75.857" cy="9.764" rx="75.857" ry="9.764" transform="translate(483.968 468.8)" fill="#6c63ff" opacity="0.1"/><path d="M60.3,396.83h63.317v86.3H64.933c-.156.886-.306,1.778-.468,2.67h59.149v69.6c-.106-.031-.2-.069-.3-.106-1.672-.661-3.331-1.36-4.991-2.109l-1.061-.48q-2.5-1.179-4.991-2.5c-.58-.306-1.16-.624-1.734-.948a103.826,103.826,0,0,1-24.88-19.44c-.212-.206-.412-.424-.624-.624-1.011-1.1-2-2.208-2.963-3.344l-1.061-1.248c-1.135-1.391-2.233-2.82-3.3-4.267-.156-.212-.306-.424-.468-.624a92.879,92.879,0,0,1-10.731-19.4c-.087-.206-.162-.43-.243-.624q-1.285-3.307-2.277-6.675c-.287-.942-.561-1.872-.8-2.851-.087-.287-.162-.568-.231-.848C59.418,475.482,59,461.114,59,446.846v-4.991c0-5.771.069-11.579.168-17.381,0-1.5.062-3,.094-4.511q.131-5.746.374-11.492c.037-1.067.087-2.127.143-3.188a18.056,18.056,0,0,1,.094-1.834C60.023,401.228,60.148,399.026,60.3,396.83Z" transform="translate(-51.483 -185.839)" fill="#ff6767" opacity="0.1"/><path d="M141.631,216.346H106.9a263.283,263.283,0,0,1,18.473-25.429c5.159-6.338,10.606-12.515,16.258-18.467Z" transform="translate(-69.499 -101.443)" fill="#ff6767" opacity="0.1"/><path d="M124.517,247.09v90.748H61.4c0-.262.044-.53.062-.792.056-.717.112-1.435.175-2.146.069-.836.143-1.678.225-2.5s.168-1.815.262-2.72.181-1.822.287-2.726.2-1.809.312-2.708.212-1.809.331-2.708c.094-.749.193-1.491.293-2.24.143-1.054.293-2.115.455-3.163a2.917,2.917,0,0,1,.069-.468,215.8,215.8,0,0,1,4.648-22.784,168.5,168.5,0,0,1,7.83-23.083,173.282,173.282,0,0,1,11.779-22.684Z" transform="translate(-52.385 -129.518)" fill="#ff6767" opacity="0.1"/><path d="M186.8,269.615v86.306H322.037V269.615Zm0,88.97V432.7c.774.162,1.541.318,2.3.449,1.036.2,2.065.381,3.119.537.2.031.406.062.624.081.412.069.836.125,1.248.181,1.042.143,2.077.262,3.119.356.493.05.992.094,1.491.131l1.2.094h0c.655.05,1.3.087,1.946.106.4,0,.8.037,1.21.05h4.448c.537,0,1.073,0,1.6-.05h.037a8.412,8.412,0,0,0,1.117-.05,2.62,2.62,0,0,0,.312,0,6.45,6.45,0,0,0,.923-.044h.218l2.09-.162c.686-.062,1.379-.143,2.077-.218l1.422-.168a124.431,124.431,0,0,0,17.125-3.643c12.615-3.519,24.955-8.441,37.563-12.047,16.3-4.648,34.313-6.931,50.066-1.248V358.585ZM322.037,173.532V58.634A173.855,173.855,0,0,0,278.1,63.787c-34.244,8.6-64.97,27.263-91.3,51.1v58.644h6.788v2.664H186.8v90.761H322.037V176.2H221.456v-2.664Zm173.7-38.811a56.016,56.016,0,0,1-24.512-7.125c-14.567-7.923-26.2-20.157-39.2-30.482-27.014-21.5-60.516-34.481-94.885-37.7V173.532H530.2l.48-.505Zm17.587-3.119,18.648,20.463V126.237c-6.245.774-11.716,2.614-18.623,5.34Zm18.648,319.5v-92.52H492.241c-.106-.393-.212-.792-.337-1.192.119.4.218.8.331,1.192H337.166V425.5c1.472,1.092,2.926,2.24,4.367,3.406h0c1.553,1.248,3.088,2.564,4.629,3.856l1.553,1.285c.742.624,1.491,1.248,2.246,1.834q2.246,1.822,4.536,3.594c.755.624,1.529,1.185,2.3,1.772a312.7,312.7,0,0,0,38.449,25.148q4.511,2.5,9.1,4.872c2.04,1.042,4.093,2.078,6.151,3.082q4.642,2.265,9.358,4.367h0a343.656,343.656,0,0,0,91.085,26.533q10.475,1.547,21.031,2.433V451.1h.624ZM337.166,176.2v90.755H532V176.2Zm0,93.419v86.306H532V269.615ZM547.123,126.124v28.81l23.8-26.115q-11.829-1.909-23.8-2.726Zm0,143.522v86.275h189.5V269.615ZM735.932,457.955l.668-99.37H547.123V508.67a339.814,339.814,0,0,0,36.621-.437h.212q8.734-.549,17.387-1.6h.131A320.2,320.2,0,0,0,690.814,482.8m82.351-198.971c-.711-1.678-1.454-3.344-2.209-4.991-1.41-3.119-2.9-6.151-4.436-9.183H751.735v86.269h37.382c-.019-24.431-6.2-49.386-15.934-72.126Zm-21.43,74.79v85.47a122.44,122.44,0,0,0,25.835-34.843c7.7-15.9,11.23-33.109,11.517-50.64Zm0-114.119v22.459h13.4a243.3,243.3,0,0,0-13.382-22.491ZM623.217,143.056c-.986-.374-1.971-.755-2.963-1.123a270.517,270.517,0,0,0-32.011-9.62l-36.422,39.971h0l-.7.742.468.512H681.218a277.257,277.257,0,0,0-57.983-30.514Zm61.8,33.171H549.781l-2.658,2.433v88.29H736.649V224.184A270.013,270.013,0,0,0,685.036,176.2Z" transform="translate(-99.552 -58.63)" fill="#ff6767" opacity="0.1"/><path d="M124.517,320.46v44.975H61.4c0-.262.044-.53.062-.792.056-.717.112-1.435.175-2.146.069-.836.143-1.678.225-2.5s.168-1.815.262-2.72.181-1.822.287-2.726.2-1.809.312-2.708.212-1.809.331-2.708c.094-.749.193-1.491.293-2.24.143-1.054.293-2.115.455-3.163a2.917,2.917,0,0,1,.069-.468,215.8,215.8,0,0,1,4.648-22.784Z" transform="translate(-52.385 -157.114)" fill="#ff6767" opacity="0.1"/><path d="M60.3,396.83h63.317v86.3H64.933c-.156.886-.306,1.778-.468,2.67h59.149v69.6c-.106-.031-.2-.069-.3-.106-1.672-.661-3.331-1.36-4.991-2.109l-1.061-.48q-2.5-1.179-4.991-2.5c-.58-.306-1.16-.624-1.734-.948a103.826,103.826,0,0,1-24.88-19.44c-.212-.206-.412-.424-.624-.624-1.011-1.1-2-2.208-2.963-3.344l-1.061-1.248c-1.135-1.391-2.233-2.82-3.3-4.267-.156-.212-.306-.424-.468-.624a92.879,92.879,0,0,1-10.731-19.4c-.087-.206-.162-.43-.243-.624q-1.285-3.307-2.277-6.675c-.287-.942-.561-1.872-.8-2.851-.087-.287-.162-.568-.231-.848C59.418,475.482,59,461.114,59,446.846v-4.991c0-5.771.069-11.579.168-17.381,0-1.5.062-3,.094-4.511q.131-5.746.374-11.492c.037-1.067.087-2.127.143-3.188a18.056,18.056,0,0,1,.094-1.834C60.023,401.228,60.148,399.026,60.3,396.83Z" transform="translate(-51.483 -185.839)" fill="#ff6767" opacity="0.1"/><path d="M187.168,193.407v77.759H139.56V193.407h6.788V167.08H174.21v26.327Z" transform="translate(-52.312 -62.846)" fill="#ff6767" opacity="0.1"/><rect width="47.601" height="86.3" transform="translate(87.254 210.985)" fill="#ff6767" opacity="0.1"/><path d="M186.8,539.44h47.608v71.745a124.219,124.219,0,0,1-17.125,3.637L215.86,615c-.7.081-1.391.15-2.078.218s-1.4.119-2.09.162h-.218c-.3,0-.624.037-.917.044h-.318c-.374,0-.749.037-1.123.05h0c-.53.031-1.061.037-1.6.044H203.1l-1.2-.044c-.624,0-1.3-.069-1.946-.112h0l-1.2-.087-1.491-.137c-1.048-.094-2.09-.212-3.119-.356l-1.248-.175-.624-.087c-1.042-.162-2.071-.337-3.119-.536-.767-.131-1.528-.293-2.3-.449Z" transform="translate(-99.552 -239.479)" fill="#ff6767" opacity="0.1"/><rect width="39.254" height="86.937" transform="translate(393.195 121.378)" fill="#ff6767" opacity="0.1"/><path d="M575.421,338.19V424.5H380.58V387.27H484.361v21.96h51.8V338.19Z" transform="translate(-142.966 -127.205)" fill="#ff6767" opacity="0.1"/><path d="M623.279,631.254h-.624v56.616q-10.543-.892-21.025-2.427a343.667,343.667,0,0,1-91.123-26.589q-12.559-5.652-24.606-12.34a313.969,313.969,0,0,1-38.456-25.148q-4.592-3.519-9.065-7.2c-2.065-1.7-4.118-3.45-6.2-5.147-1.441-1.167-2.895-2.315-4.367-3.413V538.722H582.883c-.106-.4-.212-.8-.324-1.192.119.393.231.792.337,1.192h39.759v92.5C622.867,631.223,623.073,631.242,623.279,631.254Z" transform="translate(-190.206 -238.76)" fill="#ff6767" opacity="0.1"/><path d="M888.8,223.744H863.22V215.8h11.467V192.12q1.491.543,2.97,1.117V215.8H888.8Z" transform="translate(-353.973 -108.842)" fill="#ff6767" opacity="0.1"/><path d="M913.241,337.838H787.668l.044.031-.056-.031h-23.3V250.9h6.6v64.259h30.164V277.1h24.917V247.09h25.579v30.039h24.917v38.056h36.7Z" transform="translate(-316.788 -129.518)" fill="#ff6767" opacity="0.1"/><path d="M764.36,396.82v86.306H913.241V396.82Zm189.3,187.9.206-68.314h-40.62v-30.57H764.36V635.875a339.815,339.815,0,0,0,36.621-.437h.212q8.734-.549,17.387-1.6h.131A320.2,320.2,0,0,0,908.05,610" transform="translate(-316.788 -185.835)" fill="#ff6767" opacity="0.1"/><path d="M1094.99,539.44h34.731c-.306,17.525-3.824,34.737-11.523,50.633a122.477,122.477,0,0,1-25.828,34.843v-54.9h2.62Z" transform="translate(-440.162 -239.479)" fill="#ff6767" opacity="0.1"/><path d="M1131.32,491.676h-34.75V419.55h18.8C1125.106,442.29,1131.289,467.245,1131.32,491.676Z" transform="translate(-441.742 -194.385)" fill="#ff6767" opacity="0.1"/><rect width="21.031" height="27.257" transform="translate(411.424 145.547)" fill="#6c63ff" opacity="0.1"/><rect width="21.031" height="6.276" transform="translate(411.424 202.045)" fill="#ff6767" opacity="0.1"/><rect width="21.031" height="18.311" transform="translate(411.424 210.985)" fill="#ff6767" opacity="0.1"/><rect width="21.031" height="27.257" transform="translate(411.424 258.543)" fill="#ff6767" opacity="0.1"/><rect width="21.031" height="27.257" transform="translate(411.424 315.04)" fill="#ff6767" opacity="0.1"/><path d="M727.445,675.088a3.459,3.459,0,0,1,.624.037h-.624v6.332H706.42V654.17h21.025Z" transform="translate(-294.996 -282.632)" fill="#ff6767" opacity="0.1"/><path d="M727.445,744.71v21.056q-10.543-.892-21.025-2.427V744.71Z" transform="translate(-294.996 -316.686)" fill="#ff6767" opacity="0.1"/><rect width="90.131" height="2.003" transform="translate(237.614 295.289)" fill="#ff6767" opacity="0.1"/><rect width="90.131" height="7.674" transform="translate(237.614 299.955)" fill="#ff6767" opacity="0.1"/><rect width="90.131" height="12.34" transform="translate(237.614 332.783)" fill="#ff6767" opacity="0.1"/><path d="M520.574,652.15v12.34h-70.5q-4.592-3.506-9.071-7.2c-2.065-1.7-4.111-3.45-6.2-5.141Z" transform="translate(-192.836 -281.872)" fill="#ff6767" opacity="0.1"/><path d="M552.962,712.229v12.328h-7.443q-12.546-5.659-24.6-12.346Z" transform="translate(-225.224 -304.462)" fill="#ff6767" opacity="0.1"/><rect width="17.743" height="17.743" transform="translate(484.199 219.351)" fill="#ff6767" opacity="0.1"/><rect width="17.743" height="17.743" transform="translate(100.031 136.682)" fill="#ff6767" opacity="0.1"/><rect width="17.743" height="17.743" transform="translate(100.031 177.895)" fill="#ff6767" opacity="0.1"/><rect width="17.743" height="17.743" transform="translate(100.031 219.108)" fill="#ff6767" opacity="0.1"/><rect width="17.743" height="17.743" transform="translate(100.031 260.314)" fill="#ff6767" opacity="0.1"/><rect width="17.743" height="17.743" transform="translate(100.031 301.527)" fill="#ff6767" opacity="0.1"/><rect width="17.743" height="17.743" transform="translate(100.031 342.74)" fill="#ff6767" opacity="0.1"/><rect width="17.743" height="17.743" transform="translate(551.933 219.351)" fill="#6c63ff" opacity="0.1"/><rect width="17.743" height="17.743" transform="translate(484.199 263.116)" fill="#ff6767" opacity="0.1"/><rect width="17.743" height="17.743" transform="translate(551.933 263.116)" fill="#6c63ff" opacity="0.1"/><rect width="17.743" height="17.743" transform="translate(484.199 306.874)" fill="#ff6767" opacity="0.1"/><rect width="17.743" height="17.743" transform="translate(551.933 306.874)" fill="#6c63ff" opacity="0.1"/><rect width="17.743" height="17.743" transform="translate(484.199 350.638)" fill="#ff6767" opacity="0.1"/><rect width="17.743" height="17.743" transform="translate(551.933 350.638)" fill="#6c63ff" opacity="0.1"/><rect width="17.743" height="17.743" transform="translate(484.199 394.403)" fill="#ff6767" opacity="0.1"/><rect width="17.743" height="17.743" transform="translate(551.933 394.403)" fill="#ff6767" opacity="0.1"/><path d="M775.83,713.772V702.33h17.737v9.813Z" transform="translate(-291.631 -264.169)" fill="#ff6767" opacity="0.1"/><path d="M65.24,357v10.15h60.721V357Zm6.052,9.514H66.338v-8.89h4.991Zm6.045,0H72.346v-8.89h4.991Zm6.033,0H78.379v-8.89H83.37Zm6.045,0H84.43v-8.89h4.991Zm6.039,0H90.463v-8.89h4.991Zm6.045,0H96.508v-8.89H101.5Zm6.045,0h-4.991v-8.89h4.991Zm6.039,0h-4.991v-8.89h4.991Zm6.039,0h-4.991v-8.89h4.991Zm6.039,0h-4.991v-8.89h4.991Z" transform="translate(-53.83 -170.858)" fill="#ff6767" opacity="0.1"/><path d="M65.24,404.34v10.15h60.721V404.34Zm6.052,9.508H66.338v-8.865h4.991Zm6.045,0H72.346v-8.865h4.991Zm6.033,0H78.379v-8.865H83.37Zm6.045,0H84.43v-8.865h4.991Zm6.039,0H90.463v-8.865h4.991Zm6.045,0H96.508v-8.865H101.5Zm6.045,0h-4.991v-8.865h4.991Zm6.039,0h-4.991v-8.865h4.991Zm6.039,0h-4.991v-8.865h4.991Zm6.039,0h-4.991v-8.865h4.991Z" transform="translate(-53.83 -188.664)" fill="#ff6767" opacity="0.1"/><path d="M65.24,451.7v10.169h60.721V451.7Zm6.052,9.508H66.338v-8.871h4.991Zm6.045,0H72.346v-8.871h4.991Zm6.033,0H78.379v-8.871H83.37Zm6.045,0H84.43v-8.871h4.991Zm6.039,0H90.463v-8.871h4.991Zm6.045,0H96.508v-8.871H101.5Zm6.045,0h-4.991v-8.871h4.991Zm6.039,0h-4.991v-8.871h4.991Zm6.039,0h-4.991v-8.871h4.991Zm6.039,0h-4.991v-8.871h4.991Z" transform="translate(-53.83 -206.477)" fill="#ff6767" opacity="0.1"/><path d="M65.24,499.06V509.2h60.721V499.06Zm6.052,9.508H66.338V499.69h4.991Zm6.045,0H72.346V499.69h4.991Zm6.033,0H78.379V499.69H83.37Zm6.045,0H84.43V499.69h4.991Zm6.039,0H90.463V499.69h4.991Zm6.045,0H96.508V499.69H101.5Zm6.045,0h-4.991V499.69h4.991Zm6.039,0h-4.991V499.69h4.991Zm6.039,0h-4.991V499.69h4.991Zm6.039,0h-4.991V499.69h4.991Z" transform="translate(-53.83 -224.291)" fill="#ff6767" opacity="0.1"/><path d="M65.66,546.41c.243.955.518,1.909.8,2.851v-2.215h4.991v8.871h-2.67c.081.206.162.43.243.624h57.091V546.41Zm11.854,9.508H72.523v-8.871h4.991Zm6.033,0H78.555v-8.871h4.991Zm6.045,0h-5v-8.871h4.991Zm6.039,0H90.64v-8.871h4.991Zm6.045,0H96.685v-8.871h4.991Zm6.045,0H102.73v-8.871h4.991Zm6.039,0H108.77v-8.871h4.991Zm6.039,0h-4.991v-8.871H119.8Zm6.039,0h-4.991v-8.871h4.991Z" transform="translate(-53.988 -242.1)" fill="#ff6767" opacity="0.1"/><path d="M88.26,593.77c.156.2.306.424.468.624h3.3v4.261c.356.424.7.848,1.067,1.248v-5.534h4.991v8.9H96.065c.2.206.393.424.624.624h37.95V593.77Zm15.853,9.5H99.122v-8.865h4.991Zm6.045,0h-4.991v-8.865h4.991Zm6.045,0h-4.991v-8.865H116.2Zm6.039,0h-4.991v-8.865h4.991Zm6.039,0H123.29v-8.865h4.991Zm6.039,0h-4.991v-8.865h4.991Z" transform="translate(-62.488 -259.914)" fill="#ff6767" opacity="0.1"/><path d="M141.65,641.12c.568.324,1.148.624,1.734.948v-.312h4.991v2.807l1.061.493v-3.3h4.991v5.4a1.569,1.569,0,0,0,.3.112V641.12Z" transform="translate(-82.57 -277.723)" fill="#6c63ff" opacity="0.1"/><path d="M574.539,336.217Zm-38.43,184.129Zm-40.1-93.687c.119.4.218.8.331,1.192h0C496.243,427.458,496.137,427.059,496.012,426.66ZM574.539,336.2ZM197.72,242.78v2.664h27.868V242.78ZM536.108,520.347Zm-40.1-93.687c.119.4.218.8.331,1.192h0C496.243,427.458,496.137,427.059,496.012,426.66ZM574.539,336.2Zm-38.43,184.129Zm-40.1-93.668c.119.4.218.8.331,1.192h0C496.243,427.458,496.137,427.059,496.012,426.66Z" transform="translate(-103.659 -127.896)" fill="#ff6767" opacity="0.1"/><path d="M428.642,355.5s-2.458-.343-2.458-3.924-1.759-10.269-1.759-10.269h0c0-.031-1.522-11.648-3.625-13.494s-4.8-12.69-4.8-12.69-.462-5.883-1.4-7.15-2.215-4.367-4.093-8.79-9.707-7.486-9.707-7.486-14.156-8.21-18.167-10.887h0a6.156,6.156,0,0,1-1.017-.767c-.7-.917-3.743-.936-3.743-.936a61.34,61.34,0,0,1-.724-6.407,4.873,4.873,0,0,0-.031-.674,21.586,21.586,0,0,0,9.489-11.741c.075-.237.137-.487.206-.724a2.028,2.028,0,0,0,1.217-1.1,22.887,22.887,0,0,1,.817-2.5,9.4,9.4,0,0,1,2.308-2.028c1.984-1.684,2.5-4.523,2.4-7.106-.062-2.09-.4-4.2-.268-6.276l.037-.524c.037-.312.081-.624.137-.923.306-1.547.973-3.007,1.348-4.542a5.843,5.843,0,0,0-.462-4.585c-1.279-1.94-3.943-2.327-6.282-2.527-2.651-.225-5.022.069-6.719-2.134a23.949,23.949,0,0,0-2.67-3.225c-.349-.324-3.743-2.4-3.743-2.533a15.166,15.166,0,0,0-10.575-.811c-1.759.512-3.419,1.348-5.2,1.766-3.849.911-8.279-.075-11.548,2.127a13.573,13.573,0,0,0-3.937,5.166q-1.248,2.389-2.533,4.773a30.917,30.917,0,0,0-3.363,8.166,12.968,12.968,0,0,0-.225,1.909h0v1.017a3.357,3.357,0,0,0,.037.624c.037.193.031.256.05.387s.05.424.087.624.112.549.187.824c.031.119.075.231.112.343.062.212.137.418.218.624.044.106.087.218.137.324a5.836,5.836,0,0,0,.318.624c.05.087.087.168.137.25a8.282,8.282,0,0,0,.574.836c1.335,1.666,3.3,2.726,4.754,4.286v.7a21.355,21.355,0,0,0,9.72,17.437c0,.237.031.48.044.717a35.692,35.692,0,0,1-.069,5.559,2.62,2.62,0,0,0-2.071-.923,2.987,2.987,0,0,0-.8.069l-.056-.044h0v.056c-1.373.337-3.063,1.766-4.679,5.827,0,0-4.916,5.54-8.659,5.309s-13.22,5.765-13.22,5.765-9.246,6-11.23,12.116a85.387,85.387,0,0,1-3.98,10.157l-11.429,23.551h0L295.62,358.4s1.167,8.31.936,9.576,4.8,12.69,4.8,12.69,16.614,29.191,23.4,30.688l.487-.343a3.982,3.982,0,0,0,.917.343l1.4-.986a15.23,15.23,0,0,1-.106,3.294c-.936,2.882.349,21.692,1.984,25.379s1.054,52.031,1.054,52.031l-.231,4.267a1.809,1.809,0,0,0,.056.374l-.056,1.011.168.087a12.015,12.015,0,0,1-.168,4.061,45.165,45.165,0,0,0-.824,7.162s-4.673,29.871-2.458,35.873,4.1,12.577,4.1,12.577,2.339,7.486.112,8.765-8.56,3.425-7.256,6.544c1.185,2.882,5.683,10.606,6.351,11.735l-.056.593-.917,9.938a12.478,12.478,0,0,0,1.054,3.793,6.536,6.536,0,0,0,6.669,4.167c.624-.044,1.348-.119,2.046-.212a88.431,88.431,0,0,0,15.16-3.943,6.183,6.183,0,0,1-1.185-.979h0a3.425,3.425,0,0,1-1.042-2.5c.1-1.809-3.288-10.431-4.13-12.552-.131-.306-.2-.48-.2-.48s7.724-8.073,6.438-15.229c0,0-8.547-4.991-5.733-7.73s7.842-10.606,7.842-10.606.231-29.416,0-33.808a36.37,36.37,0,0,1,.43-9.127c.094-.455.206-.9.324-1.335a81.438,81.438,0,0,0,11.754.892c1.435,0,2.895,0,4.367-.087q0,.624.056,1.348c.324,7.287.93,20.064,1.422,24.811.7,6.806,4.56,25.148,4.56,25.148s-7.368,4.729,1.285,16.383c0,0,0,4.224-.574,4.835h0a52.892,52.892,0,0,0-1.479,6.089c-.362,2.2-.512,4.417.075,5.571,1.4,2.757,9.826,2.533,9.826,2.533h0l.206-.037A12.073,12.073,0,0,1,397.4,593.7c3.2,2.57,15.347,1.441,21.923.624,2.577-.324,4.3-.624,4.3-.624a2.5,2.5,0,0,0,.087-.9h0c-.069-1.616-1.335-5.159-9.92-8.323,0,0-8.073-5.428-7.961-10.157h-1.1a8.8,8.8,0,0,1,1.117,0s-3.163-11.542-1.872-12.477-2.577-13.725-2.577-13.725-2.215-21.461-2.333-22.965a13.1,13.1,0,0,1,.58-3.806l-.58-11.766s-.112-3.912,0-5.184a25.9,25.9,0,0,0-.268-3.3c-.056-.437-.112-.892-.175-1.341,3.026-.767,4.991-1.479,4.991-1.479l-.349-40.957c2.57-4.991,3.044-15.94,3.032-23.707,0-4.991-.225-8.684-.225-8.684l3.512-5.733s.811-6.863-.474-8.366a1.44,1.44,0,0,1,.156-1.965,6.525,6.525,0,0,1,.767-.524s-.037-.056-.081-.137a6.2,6.2,0,0,1,.78-.555s-1.248-1.934-.131-2.751c1.048.711,1.984,1.248,2.7,1.684-.05.455-.1.717-.1.717l.3-.624,1.1.624s5.5-10.961,5.384-12.577,3.743-8.422,3.743-8.422.468-3.575,2.577-5.072,1.635-12.346,1.635-12.346.586-5.652,1.99-7.961S428.642,355.5,428.642,355.5Zm-105.285-4.81.106,2.614-1.073-1.728Z" transform="translate(-140.482 -118.636)" fill="url(#a)"/><path d="M478.044,503.837l-1.348,5.74s-10.793-5.509-12.739-12.509,3.257-9.658,3.257-9.658l10.057,4.261Z" transform="translate(-203.635 -219.909)" fill="#fff"/><path d="M478.044,503.837l-1.348,5.74s-10.793-5.509-12.739-12.509,3.257-9.658,3.257-9.658l10.057,4.261Z" transform="translate(-203.635 -219.909)" opacity="0.1"/><path d="M374.988,813.148s-9.982,3.668-16.845,4.13a6.409,6.409,0,0,1-6.544-4.143,12.54,12.54,0,0,1-1.029-3.774l.892-9.888.474-5.266,14.58-3.787,2.065,6.314.193.48c.83,2.109,4.155,10.687,4.055,12.477a3.406,3.406,0,0,0,1.023,2.464,5.936,5.936,0,0,0,1.135.992Z" transform="translate(-161.15 -333.879)" fill="#fff"/><path d="M471.985,807.724a2.5,2.5,0,0,1-.087.892s-21.349,3.562-25.716,0a11.567,11.567,0,0,0-8.984-2.633s-8.26.225-9.639-2.5c-.574-1.142-.424-3.356-.069-5.54a52.8,52.8,0,0,1,1.447-6.058l.331-.262,1.965-1.578,23.008-.68h.175c-.112,4.7,7.811,10.1,7.811,10.1C470.643,802.59,471.885,806.115,471.985,807.724Z" transform="translate(-189.964 -333.484)" fill="#fff"/><path d="M471.987,812.9a2.545,2.545,0,0,1-.094.892s-21.343,3.562-25.71,0a11.567,11.567,0,0,0-8.978-2.633s-8.266.224-9.639-2.5c-.574-1.148-.43-3.356-.075-5.54,3.182.318,8.2,1.11,10.175,3,2.982,2.876,8.035,5.746,11.136,5.97C451.23,812.247,465.748,812.709,471.987,812.9Z" transform="translate(-189.966 -338.656)" opacity="0.1"/><path d="M375.613,826.271s-9.982,3.668-16.845,4.13a6.392,6.392,0,0,1-6.538-4.149c2.539.855,6.064,1.753,7.917.93,2.2-.973,9.982-1.6,14.349-1.872A6.146,6.146,0,0,0,375.613,826.271Z" transform="translate(-161.775 -347.002)" opacity="0.1"/><path d="M403.444,330.432c-8.235-3.2-18.828-13.775-16.183-18.716a11.054,11.054,0,0,0,1.029-3.968,36.23,36.23,0,0,0,.075-5.615,76.892,76.892,0,0,0-1.1-9.133s25.71.58,24.212,4.367a14.158,14.158,0,0,0-.387,5.2c.119,2.159.43,4.6.755,6.663.449,2.832.9,4.991.9,4.991s-1.572,2.2-2.5,2.321S415.26,334.993,403.444,330.432Z" transform="translate(-174.795 -146.786)" fill="#cf6f80"/><path d="M369.282,797.214l-.193.212c-7.686-9.3-16.982,2.29-16.982,2.29l-.137-.243.474-5.266,14.58-3.787,2.065,6.314Z" transform="translate(-161.677 -333.879)" opacity="0.1"/><path d="M455.492,790.01s-5.615-.119-8.609,2.527-17.468.574-16.845,0a2.053,2.053,0,0,0,.324-.948l1.965-1.578,23.008-.68C455.424,789.748,455.492,790.01,455.492,790.01Z" transform="translate(-191.033 -333.469)" opacity="0.1"/><path d="M375.018,665.981a17.354,17.354,0,0,0-.948,3.2,36.625,36.625,0,0,0-.431,9.084c.231,4.367,0,33.633,0,33.633s-4.935,7.8-7.686,10.556,5.615,7.692,5.615,7.692c1.248,7.112-6.314,15.148-6.314,15.148-7.686-9.3-16.982,2.3-16.982,2.3s-5.053-8.734-6.314-11.854,4.935-5.278,7.112-6.544-.106-8.734-.106-8.734-1.84-6.544-4.024-12.515,2.408-35.692,2.408-35.692a46.058,46.058,0,0,1,.8-7.118,11.9,11.9,0,0,0,.168-4.043c-.037-.455-.081-.836-.112-1.092s-.056-.374-.056-.374l.087-.15,3.119-5.814S376.515,662.319,375.018,665.981Z" transform="translate(-157.849 -282.44)" fill="#1d2366"/><path d="M451.427,741.973s-5.615-.119-8.609,2.5-17.468.574-16.845,0,.574-4.823.574-4.823c-8.491-11.592-1.248-16.3-1.248-16.3s-3.793-18.248-4.479-25.017c-.48-4.729-1.073-17.437-1.391-24.693-.137-3.119-.218-5.266-.218-5.266l6.937-1.4.892-.181,16.732-3.356s.462,3.119.774,5.671a26.506,26.506,0,0,1,.262,3.288c-.112,1.248,0,5.153,0,5.153l.568,11.71a13.3,13.3,0,0,0-.568,3.787c.112,1.491,2.29,22.84,2.29,22.84s3.787,12.739,2.5,13.657S451.427,741.973,451.427,741.973Z" transform="translate(-186.968 -286.119)" fill="#1d2366"/><path d="M411.722,297.367a14.158,14.158,0,0,0-.387,5.2,21.368,21.368,0,0,1-22.721-.424,76.886,76.886,0,0,0-1.1-9.14S413.22,293.568,411.722,297.367Z" transform="translate(-175.045 -146.786)" opacity="0.1"/><path d="M416.515,265.029a21.129,21.129,0,0,1-1.048,6.619,21.349,21.349,0,0,1-41.637-6.108v-.512a21.347,21.347,0,1,1,42.695,0Z" transform="translate(-169.899 -128.235)" fill="#cf6f80"/><path d="M403.444,339.324c-8.235-3.2-18.828-13.775-16.183-18.716a11.054,11.054,0,0,0,1.029-3.968l11.273,9.265,6.975,5.721,5.3-13.5c.449,2.832.9,4.991.9,4.991s-1.572,2.2-2.5,2.321S415.26,343.884,403.444,339.324Z" transform="translate(-174.795 -155.677)" opacity="0.1"/><path d="M380.695,321.041,371.28,479.192,359,480l-31.793-91.7,5.216-108.872,1.1-23,14.137,11.61,6.981,5.721,5.459-13.894,10.15,8.846Z" transform="translate(-122.892 -96.449)" fill="#1d2366"/><path d="M378.858,666.012a17.358,17.358,0,0,0-.948,3.2,90.461,90.461,0,0,1-25.741-8.042l-.168-.087.056-1,.031-.524,3.119-5.815S380.355,662.349,378.858,666.012Z" transform="translate(-161.688 -282.47)" opacity="0.1"/><path d="M426.268,675.037a63.169,63.169,0,0,1-6.9.786c-.137-3.119-.218-5.266-.218-5.266l6.937-1.4Z" transform="translate(-186.945 -288.27)" opacity="0.1"/><path d="M449.206,669.161c-4.436,1.154-11.286,2.452-17.419,1.641l-.087-3.955,16.732-3.356S448.894,666.578,449.206,669.161Z" transform="translate(-191.666 -286.137)" opacity="0.1"/><path d="M382.891,540.45c-25.579,4.367-49.005-8.154-49.005-8.154l.225-4.242s.58-48.094-1.029-51.781-2.864-22.385-1.953-25.254-3.325-45.9-3.325-45.9l-.686-17.468L302,377.47l11.23-23.408a84.466,84.466,0,0,0,3.905-10.107c1.953-6.077,11.018-12.047,11.018-12.047s9.3-5.964,12.97-5.74,8.491-5.278,8.491-5.278c3.556-9.065,6.775-4.96,6.775-4.96a8.1,8.1,0,0,1-.175,1.341c-1.248,9.951,20.176,41.394,20.482,41.949h0l2.04,49.7,2.065,62.892Z" transform="translate(-142.882 -155.062)" opacity="0.1"/><path d="M381.78,540.427c-25.579,4.367-49.011-8.154-49.011-8.154l.231-4.242s.58-48.094-1.036-51.781S329.1,453.865,330.017,451s-3.325-45.9-3.325-45.9L326,387.622,300.87,377.41,312.1,354a85.8,85.8,0,0,0,3.905-10.107c1.946-6.077,11.018-12.047,11.018-12.047s9.3-5.964,12.964-5.74,8.491-5.278,8.491-5.278c3.562-9.065,7.486-4.96,7.486-4.96,0,.43-.374.624-.175,1.341,2.745,9.651,19.49,41.394,19.8,41.949h0l2.065,49.7,2.065,62.893Z" transform="translate(-142.457 -155.039)" fill="#fff"/><path d="M405.3,361.449c-2.751-1.148-17.325-17.787-17.325-17.787v-3.787c-.53-1.248-3.681-.487-6.239.387l1.1-23,1.248,1.036C386.818,327.941,404.985,360.894,405.3,361.449Z" transform="translate(-172.874 -155.91)" opacity="0.1"/><path d="M406.41,359.239c-2.758-1.148-17.331-17.787-17.331-17.787v-3.787c-.53-1.248-3.681-.487-6.239.387l1.1-23,1.248,1.036C387.931,325.731,406.1,358.69,406.41,359.239Z" transform="translate(-173.288 -155.079)" fill="#fff"/><path d="M352.264,517.784c.343,0,17.787-1.834,17.787-1.834s10.562,20.769,9.87,25.822-1.947,9.526-6.2,8.734-22.865.624-22.865.624Z" transform="translate(-161.26 -230.643)" opacity="0.1"/><path d="M351.154,515.574c.343,0,17.787-1.834,17.787-1.834s10.556,20.775,9.87,25.822-1.953,9.527-6.2,8.734-22.865.624-22.865.624Z" transform="translate(-160.842 -229.812)" fill="#fff"/><path d="M367.319,501.05s16.009,8.6,16.352,11.23-8.148-1.148-9.982-1.6a22.842,22.842,0,0,0-3.675-.574l-12.234.331Z" transform="translate(-163.862 -225.039)" fill="#cf6f80"/><circle cx="1.684" cy="1.684" r="1.684" transform="translate(226.278 203.243)" opacity="0.1"/><circle cx="1.684" cy="1.684" r="1.684" transform="translate(226.278 202.556)" fill="#3f3d56"/><circle cx="1.684" cy="1.684" r="1.684" transform="translate(229.379 276.161)" opacity="0.1"/><circle cx="1.684" cy="1.684" r="1.684" transform="translate(229.379 275.468)" fill="#3f3d56"/><circle cx="1.684" cy="1.684" r="1.684" transform="translate(227.956 239.702)" opacity="0.1"/><circle cx="1.684" cy="1.684" r="1.684" transform="translate(227.956 239.015)" fill="#3f3d56"/><path d="M458.331,441.226s1.148,1.722,0,2.527.112,2.751.112,2.751-2.864,1.678-1.6,3.188.462,8.329.462,8.329l-3.444,5.7s.206,3.675.218,8.641c0,7.748-.455,18.641-2.976,23.607l.349,40.745s-12.059,4.4-22.154,3.063L427.8,474.4s2.184-37.077,2.988-44.189a74.044,74.044,0,0,0,.574-11.136s-.343-11.13-1.5-16.3c0,0-1.248-22.378-1.373-28.573-.056-2.963.1-11.61.275-19.833.193-8.99.412-17.468.412-17.468L426.9,318.884s2.277-.231,2.963.686a6.569,6.569,0,0,0,1,.767h0c3.93,2.658,17.818,10.83,17.818,10.83s7.686,3.057,9.527,7.437,3.119,7.486,4.012,8.734,1.379,7.112,1.379,7.112,2.645,10.793,4.71,12.621,3.575,13.457,3.575,13.457l-18.248,14.349s-1.6,23.869-1.946,24.793S458.331,441.226,458.331,441.226Z" transform="translate(-189.86 -156.512)" fill="#fff"/><path d="M459,441.106s1.142,1.722,0,2.527.106,2.751.106,2.751-2.845,1.7-1.6,3.207.462,8.329.462,8.329l-3.444,5.7s.206,3.675.225,8.641c0,7.748-.455,18.641-2.976,23.607l.343,40.745s-12.078,4.4-22.16,3.063L428.465,474.3s2.184-37.077,2.988-44.189a73.349,73.349,0,0,0,.568-11.136s-.343-11.13-1.491-16.3c0,0-1.248-22.378-1.379-28.573-.056-2.963.106-11.61.275-19.833.193-8.99.412-17.468.412-17.468L426.83,318.54s3.007,0,3.7.93a5.919,5.919,0,0,0,1,.767h0c3.93,2.658,17.824,10.83,17.824,10.83s7.68,3.057,9.52,7.437,3.119,7.486,4.018,8.734,1.373,7.112,1.373,7.112,2.645,10.793,4.71,12.621,3.556,13.432,3.556,13.432L454.28,394.752s-1.6,23.869-1.953,24.793S459,441.106,459,441.106Z" transform="translate(-189.834 -156.392)" fill="#fff"/><path d="M437.56,342.921l1.647,4.8-8.672,8.734c.193-8.984.412-17.468.412-17.468L427.94,320.73s3.007,0,3.7.93a5.7,5.7,0,0,0,1,.761h0l7.374,21.274Z" transform="translate(-190.252 -157.216)" opacity="0.1"/><path d="M436.45,340.711l1.653,4.8-8.672,8.734c.193-8.99.412-17.468.412-17.468L426.83,318.52s3.013,0,3.7.93a6.241,6.241,0,0,0,1,.767h0l7.38,21.268Z" transform="translate(-189.834 -156.384)" fill="#fff"/><path d="M416.515,265.029a21.129,21.129,0,0,1-1.048,6.619.892.892,0,0,1-.674-.168c-.162-5.615-2.926-10.887-6.326-15.372a16.154,16.154,0,0,0-3.431-3.556,6.713,6.713,0,0,0-4.654-1.316c-1.872.256-3.525,1.528-5.415,1.691-2.5.206-4.729-1.522-7.206-1.61a7.081,7.081,0,0,0-5.3,2.458,14.53,14.53,0,0,0-2.839,5.265,30.805,30.805,0,0,0-1.585,9.084c-.031,1.747-.2,3.937-1.822,4.573a9.321,9.321,0,0,0-2.352-7.118l-.037-.037v-.512a21.347,21.347,0,1,1,42.695,0Z" transform="translate(-169.899 -128.235)" opacity="0.1"/><path d="M400.082,222.727a14.7,14.7,0,0,0-10.369-.811c-1.728.512-3.356,1.341-5.109,1.759-3.743.9-8.11-.075-11.323,2.115a13.543,13.543,0,0,0-3.856,5.134l-2.5,4.754a30.85,30.85,0,0,0-3.3,8.11,10.355,10.355,0,0,0,1.591,8.372c1.323,1.678,3.275,2.733,4.71,4.311a9.358,9.358,0,0,1,2.346,7.112c1.628-.624,1.784-2.82,1.822-4.567a30.805,30.805,0,0,1,1.585-9.084,14.481,14.481,0,0,1,2.839-5.265,7.093,7.093,0,0,1,5.3-2.458c2.5.087,4.735,1.809,7.206,1.6,1.872-.156,3.531-1.435,5.415-1.684a6.688,6.688,0,0,1,4.654,1.316A15.983,15.983,0,0,1,404.517,247c3.406,4.486,6.17,9.745,6.332,15.372.7.518,1.722-.156,2.071-.954a22.812,22.812,0,0,1,.8-2.5,9.2,9.2,0,0,1,2.258-2.009c1.947-1.678,2.433-4.5,2.358-7.068s-.574-5.166-.087-7.686c.293-1.547.955-2.995,1.316-4.523a5.914,5.914,0,0,0-.449-4.56c-1.248-1.934-3.874-2.315-6.164-2.5-2.6-.225-4.929.062-6.588-2.127a23.9,23.9,0,0,0-2.62-3.207C403.42,224.923,400.082,222.864,400.082,222.727Z" transform="translate(-165.968 -119.828)" fill="#512e4e"/><path d="M308.344,427.183l-6.519-12.053-2.065,18.6s1.148,8.26.917,9.526,4.7,12.621,4.7,12.621,16.3,29.035,22.958,30.532l22.491-16.071-5.964-7.574s-2.065-.8-2.583,0c0,0-11.074-19.053-12.222-20.432s-.923-4.13-.923-4.13-1.722-1.834-1.148-3.556-3.325-7.692-3.325-7.692l3.556-3.325Z" transform="translate(-142.039 -192.722)" opacity="0.1"/><path d="M301.337,412.93l-1.722,1.373-2.065,18.6s1.148,8.26.917,9.526,4.71,12.621,4.71,12.621,16.3,29.035,22.952,30.532l22.5-16.071-5.971-7.574s-2.065-.8-2.583,0c0,0-11.074-19.053-12.222-20.432s-.917-4.13-.917-4.13-1.722-1.834-1.148-3.556-3.331-7.692-3.331-7.692l3.556-3.325Z" transform="translate(-141.208 -191.895)" fill="#fff"/><path d="M467.043,523.011c1.248,1.516.462,8.323.462,8.323l-3.444,5.7s.206,3.681.218,8.641l-5.79,1.809a3.437,3.437,0,0,1-4.461-3.388l1-32.2,13.507,5.166c-1.148.8.112,2.757.112,2.757S465.783,521.5,467.043,523.011Z" transform="translate(-200.064 -229.12)" opacity="0.1"/><path d="M468.149,521.9c1.248,1.516.462,8.329.462,8.329l-3.444,5.7s.206,3.675.225,8.641l-5.9,1.84a3.369,3.369,0,0,1-4.367-3.319l1-32.3,13.513,5.166c-1.154.8.106,2.751.106,2.751S466.9,520.4,468.149,521.9Z" transform="translate(-200.477 -228.706)" fill="#fff"/><path d="M476.655,500.971s-.917,5.858-3.213,6.2-3.325,9.477-5.615,9.152-.774-8.491-.692-10.076-2.5-8.148-.568-9.639,8.029,0,8.029,0Z" transform="translate(-204.511 -223.12)" fill="#cf6f80"/><path d="M480.12,426.424l4.33-8.734s1.722,6.657,1.722,10.213,2.408,3.905,2.408,3.905,2.639,3.119,1.248,5.39-1.953,7.923-1.953,7.923.455,10.787-1.61,12.278-2.5,5.053-2.5,5.053-3.793,6.769-3.675,8.379-5.278,12.509-5.278,12.509,2.639-13.544-12.739-19.4c0,0-.119-4.6,1.029-5.858s2.938-1.834,1.815-8.2-.324-13.981-.324-15.509,3.444-11.061,3.444-11.061Z" transform="translate(-203.09 -193.685)" opacity="0.1"/><path d="M482.778,415.69l3.781,1.248s1.728,6.657,1.728,10.213,2.408,3.905,2.408,3.905,2.639,3.119,1.248,5.39S490,444.369,490,444.369s.455,10.787-1.61,12.278-2.527,5.053-2.527,5.053-3.787,6.769-3.668,8.379-5.284,12.509-5.284,12.509,2.645-13.544-12.739-19.4c0,0-.112-4.6,1.036-5.858s2.938-1.834,1.815-8.2-.324-13.981-.324-15.509,3.444-11.061,3.444-11.061Z" transform="translate(-203.877 -192.933)" fill="#fff"/><path d="M360.15,777.332s6.027-3.787,9.982-1.036S360.15,777.332,360.15,777.332Z" transform="translate(-164.754 -328.19)" opacity="0.1"/><path d="M435.21,759.77a12.2,12.2,0,0,1,9.813,4.136C449.5,768.728,435.21,759.77,435.21,759.77Z" transform="translate(-192.986 -322.338)" opacity="0.1"/><g transform="translate(197.414 115.208)" opacity="0.1"><path d="M421.376,267.252a9.256,9.256,0,0,0-2.265,2.015,22.837,22.837,0,0,0-.8,2.5c-.349.811-1.366,1.472-2.071.961-.162-5.615-2.932-10.887-6.332-15.378a15.983,15.983,0,0,0-3.425-3.556,6.706,6.706,0,0,0-4.66-1.316c-1.872.256-3.519,1.528-5.409,1.684-2.5.212-4.735-1.516-7.212-1.6a7.062,7.062,0,0,0-5.29,2.464,14.449,14.449,0,0,0-2.839,5.259,30.844,30.844,0,0,0-1.585,9.084c-.037,1.741-.2,3.912-1.809,4.56a8.538,8.538,0,0,1,0,1.385c1.622-.624,1.784-2.82,1.822-4.567a30.807,30.807,0,0,1,1.585-9.084,14.48,14.48,0,0,1,2.839-5.266,7.081,7.081,0,0,1,5.29-2.458c2.5.087,4.741,1.809,7.212,1.6,1.872-.156,3.531-1.435,5.409-1.684a6.707,6.707,0,0,1,4.66,1.316,15.984,15.984,0,0,1,3.425,3.556c3.4,4.486,6.17,9.745,6.332,15.372.7.518,1.722-.156,2.071-.955a24.207,24.207,0,0,1,.8-2.5,9.233,9.233,0,0,1,2.265-2.009c1.946-1.678,2.433-4.5,2.358-7.068v-.237C423.628,263.552,423.035,265.817,421.376,267.252Z" transform="translate(-368.761 -246.739)"/><path d="M369.945,269.794c-1.435-1.578-3.394-2.633-4.71-4.3a9.133,9.133,0,0,1-1.816-5.11,9.608,9.608,0,0,0,1.816,6.482c1.316,1.678,3.275,2.733,4.71,4.311a9.358,9.358,0,0,1,2.352,5.565,9.358,9.358,0,0,0-2.352-6.944Z" transform="translate(-363.385 -249.724)"/><path d="M452.547,244.535c-.368,1.528-1.023,2.982-1.323,4.523a14.408,14.408,0,0,0-.193,3.119,12.115,12.115,0,0,1,.193-1.772c.3-1.547.954-2.995,1.323-4.523a7.675,7.675,0,0,0,.206-2.583A8.667,8.667,0,0,1,452.547,244.535Z" transform="translate(-396.345 -243.3)"/></g><ellipse cx="60.79" cy="9.764" rx="60.79" ry="9.764" transform="translate(22.197 454.981)" fill="#6c63ff" opacity="0.1"/><rect width="3.912" height="88.072" transform="translate(81.034 277.708)" fill="#535461"/><path d="M190.515,640.907l-.243,3.968-.349,5.615-.143,2.333-.343,5.615-.15,2.333-.349,5.615-3.943,63.679a10.793,10.793,0,0,1-10.768,10.119h-20.5a10.787,10.787,0,0,1-10.762-10.119l-3.924-63.722-.349-5.615-.143-2.333-.349-5.615-.144-2.333-.349-5.615-.25-3.968a5.615,5.615,0,0,1,5.615-5.933H185a5.578,5.578,0,0,1,5.515,5.977Z" transform="translate(-80.988 -275.395)" fill="#3f3d56"/><path d="M143.172,592.24l-.349,5.6H90.929l-.349-5.6Z" transform="translate(-33.889 -222.761)" fill="#9d9cb5"/><path d="M142.977,604.95l-.343,5.6H91.719l-.349-5.6Z" transform="translate(-34.186 -227.541)" fill="#9d9cb5"/><path d="M142.781,617.68l-.343,5.6H92.509l-.349-5.6Z" transform="translate(-34.483 -232.329)" fill="#9d9cb5"/><path d="M97.972,546.179c22.778,16.483,32.285,42.261,32.285,42.261s-27.45-.942-50.234-17.425S47.75,528.76,47.75,528.76,75.188,529.7,97.972,546.179Z" transform="translate(-47.251 -235.462)" fill="#ff6767"/><path d="M47.72,528.76s28.5,15.815,37.638,28.91,44.888,30.769,44.888,30.769" transform="translate(-47.24 -235.462)" fill="none" stroke="#535461" stroke-miterlimit="10" stroke-width="2"/><path d="M135.338,497.743c12.4,8.965,17.581,23,17.581,23s-14.942-.512-27.344-9.477-17.574-23-17.574-23S122.935,488.772,135.338,497.743Z" transform="translate(-69.913 -220.228)" fill="#ff6767"/><path d="M108,488.26s15.509,8.609,20.482,15.734,24.437,16.745,24.437,16.745" transform="translate(-69.913 -220.228)" fill="none" stroke="#535461" stroke-miterlimit="10" stroke-width="2"/><path d="M198.446,526.768c-14.243,15.653-17.256,36.11-17.256,36.11s20.082-4.929,34.313-20.588,17.256-36.11,17.256-36.11S212.689,511.115,198.446,526.768Z" transform="translate(-97.442 -226.969)" fill="#ff6767"/><path d="M232.772,506.19s-18.554,16.046-23.27,27.1-28.311,29.59-28.311,29.59" transform="translate(-97.442 -226.972)" fill="none" stroke="#535461" stroke-miterlimit="10" stroke-width="2"/><path d="M962.492,430.052s-10.3-51.245-6.357-57.621c0,0,.143-5.927-.094-13.482v-.867a19.17,19.17,0,0,0,2.165,1.248A17.518,17.518,0,0,0,970,360.852l-3.119-3.475a5.759,5.759,0,0,1-1.691-2.826,5.921,5.921,0,0,1,.674-3.057c2.963-7.486,3.119-16.9-2.589-22.615-4.823-4.8-6-11.005-11.23-15.391-3.824-3.213-5.927-7.923-7.911-12.477a70.164,70.164,0,0,1-4.33-11.81c-.749-3.188-1.048-6.488-2.077-9.6s-2.957-6.139-5.971-7.53a22.537,22.537,0,0,1-3.244-1.429,14.013,14.013,0,0,1-2.988-3.512c-4.723-6.239-20.538-2.564-28.024-.031a15.765,15.765,0,0,0-5.54,3.069l.069-.112c.056-.094.125-.187.187-.281a9.849,9.849,0,0,0-2.1,2.34c-1.092,1.728-1.547,3.743-2.458,5.615-1.1,2.215-7.206,8.4-4.579,10.887a2.213,2.213,0,0,0,.624.4,5.4,5.4,0,0,0,3.119.312l-.112.268a18.236,18.236,0,0,0-1.354,6.919,18.725,18.725,0,0,0,18.891,18.56,19.073,19.073,0,0,0,5.783-.892c.044.237.081.474.125.711a2.19,2.19,0,0,0,.044.281h0l-.331.462a.631.631,0,0,0-.056-.081l-9.795,13.688c-1.5,1.054-10.119,7.293-10.606,11.972-.512,5.122-1.023,11.117-1.023,11.117l-.069,1.285a3.856,3.856,0,0,1-3.119.842c-3.057-.5-3.057,11.23-3.057,11.23s-2.034,1.872-3.431.25-5.091,3.874-5.091,3.874l-23.146,1h0l-.53.031-1.248-3.862a1.628,1.628,0,0,0-2.04-1.042,1.868,1.868,0,0,0-.281.118l-.087.05-.162.112-.081.075a1.251,1.251,0,0,0-.125.131l-.075.087-.038.037h0a1.573,1.573,0,0,0-.225,1.4l1.073,3.313c-4.467.9-9.034,3.431-5.309,10.406l-18.878-3.487,6.108,5.128,31.53,6.507c-.418.749-.143,1.834,1.16,3.363,5.615,6.594,15.846,8.385,19.964,8.846a35.448,35.448,0,0,0,4.049,6.863l-.356,6.569s-10.425,50.072-12.334,52.611a29.671,29.671,0,0,0,2.639-3.475c-3.026,10.288-7.256,24.368-8.366,26.477-1.784,3.369-3.438,17-1.4,17.874.624.268,2.408.137,4.954-.056v1.129l-.112,42.791s.512,26.246-.892,28.748-1.778,7.748-1.778,7.748-5.615,10.35-10.063,14.511a.672.672,0,0,1-.1.087l-.137-.973s-5.347,6.75-17.175,6.37c0,0-7.118,4.629,3.437,4.879s24.038-.374,24.038-.374,9.414-14.349,17.3-12.477V612.2h2.414V601.149a9.9,9.9,0,0,0,4.3-6.507,7.911,7.911,0,0,0-2.82-7.318,4.679,4.679,0,0,1-1.541-3.419l-.087.075a6.613,6.613,0,0,0-.081-.674c-.693-5.615-1.56-17.2,1.5-25.772,4.2-11.754,5.471-28.124,2.414-37.869a87.057,87.057,0,0,1-2.427-9.489c-.075-.406-.144-.792-.206-1.154a49.186,49.186,0,0,1,6.2,1.248c7.081,1.953,22.572,2.315,35.8,2.209.031.362.069.742.112,1.123a40.864,40.864,0,0,0,1.472,7.811c1.659,4.991,2.421,26.995,2.421,26.995s2.14,18.092.973,25.454c-.624,4.093-1.248,8.2-1.6,12.334v.081s-3.506,9.982-6.07,15.4c-.062.137-.131.275-.193.406a8.11,8.11,0,0,0-2,.443s-3.438,6.863-6.863,8-2.29,4.872,5.465,3.5,19.465-2.5,19.465-2.5l.505-7,2.383-2.982-.624,6.981,2.539-.5-.337-8.491,3.9-4.879s4.71-4.192-2.29-12.44v.181c-.075-.118-.143-.243-.225-.362V582c-1.16-1.8-2.084-5.147-.393-11.092,3.057-10.743,4.835-20.494,4.835-20.494s6.825-26.122-1.379-38.48h.362a20.789,20.789,0,0,1-1.766-5.49q-.062-.337-.112-.693c6.07-.349,12.028-1.447,16.888-3.818C967.838,501.91,964.912,439.922,962.492,430.052Zm-77.067-43.234v.125l-1.248.062Zm-4.28.593a1.38,1.38,0,0,0-.562.268,5.539,5.539,0,0,0-.979,2.564l-1.947-.437s-1.366-.293-3.331-.624l-.93-.936C875.955,388.035,878.612,387.723,881.145,387.411Z" transform="translate(-338.645 -135.762)" fill="url(#b)"/><path d="M972.062,742.778l-.742,8.84,2.489-.5-.374-9.589Z" transform="translate(-365.16 -278.913)" fill="#1d2366"/><path d="M908.256,702.973c-3,8.547-2.152,20.082-1.479,25.685.25,2.071.48,3.331.48,3.331s-4.486,10.219-4.86,10.606-13.2,8.216-13.2,8.216l-8.965,5.234s-9.1-3.987-4.735-5.359a6.619,6.619,0,0,0,2.352-1.6c4.367-4.149,9.851-14.461,9.851-14.461s.374-5.234,1.747-7.724.873-28.648.873-28.648l.106-42.642V650.05l17.063.125a38.608,38.608,0,0,0,.736,5.615,85.84,85.84,0,0,0,2.377,9.458C913.609,674.974,912.361,691.263,908.256,702.973Z" transform="translate(-358.145 -281.082)" fill="#ffb0b1"/><path d="M907.258,779.389s-4.486,10.219-4.86,10.606-13.2,8.216-13.2,8.216l-8.965,5.234s-9.1-3.987-4.735-5.359a6.62,6.62,0,0,0,2.352-1.6l.387,2.726,2.988-.125L906.8,776.07C907.027,778.129,907.258,779.389,907.258,779.389Z" transform="translate(-358.145 -328.482)" opacity="0.1"/><path d="M897.392,777l-25.722,23.171-2.988.125-.624-4.367s-5.228,6.725-16.844,6.351c0,0-6.975,4.61,3.363,4.86s23.539-.374,23.539-.374,9.221-14.349,16.938-12.477v10.837h2.371V794.188a9.85,9.85,0,0,0,4.2-6.488,7.948,7.948,0,0,0-2.751-7.287A4.7,4.7,0,0,1,897.392,777Z" transform="translate(-348.591 -328.832)" fill="#1d2366"/><path d="M1009.583,716.019c-1.659,5.927-.755,9.264.381,11.055v.037a20.433,20.433,0,0,1,2.982,7.281l.1.561-11.7,17.063-6.351,2.5s-10.213-3.487-8.347-4.486c.468-.243,1.2-1.541,2.034-3.332,2.5-5.4,5.939-15.353,5.939-15.353v-.081c.362-4.111.936-8.21,1.572-12.29,1.142-7.343-.955-25.367-.955-25.367s-.749-21.917-2.371-26.9a41.138,41.138,0,0,1-1.454-7.761c-.337-3.119-.412-5.69-.412-5.69s6.725-9.358,19.053.749a13.563,13.563,0,0,1,2.577,2.795c8.516,12.116,1.66,38.8,1.66,38.8S1012.571,705.307,1009.583,716.019Z" transform="translate(-400.31 -280.802)" fill="#ffb0b1"/><path d="M1013.075,781.749l-11.7,17.063-6.351,2.5s-10.213-3.488-8.347-4.486c.468-.243,1.2-1.541,2.034-3.332,4.323-.037,6.563,4.08,6.563,4.08l5.478-.873s7.224-14.2,8.846-15.067.25-6.482.25-6.482V773.72c.044.05.081.106.131.156v.037a20.427,20.427,0,0,1,2.982,7.281Z" transform="translate(-400.321 -327.598)" opacity="0.1"/><path d="M990.568,798.157s-3.119-5.727-9.1-3.612c0,0-3.363,6.863-6.725,7.973s-2.24,4.854,5.359,3.487,19.053-2.5,19.053-2.5l.5-6.981,7.723-9.838s4.6-4.174-2.246-12.39v1.429s1.372,5.615-.25,6.482-8.821,15.073-8.821,15.073Z" transform="translate(-395.245 -327.816)" fill="#1d2366"/><path d="M917.222,650.155a38.6,38.6,0,0,0,.736,5.615,78.264,78.264,0,0,0-17.818-.181V650.03Z" transform="translate(-367.859 -281.075)" opacity="0.1"/><path d="M1016.1,658.344s-9.982.487-21.885.586c-.337-3.119-.412-5.69-.412-5.69s6.725-9.358,19.053.749a13.565,13.565,0,0,1,2.577,2.795A15.193,15.193,0,0,0,1016.1,658.344Z" transform="translate(-403.087 -280.798)" opacity="0.1"/><path d="M977.4,591.337s-43.721,2.115-57.047-1.622-26.533-.5-28.523-1.366-.374-14.449,1.372-17.811,11.33-37.37,11.33-37.37l9.221-48.076,9.714-2.676.686-.193,16.926-4.667,12.4-3.425s24.662,96.282,22.547,103.382a18.18,18.18,0,0,0-.362,8.354A20.853,20.853,0,0,0,977.4,591.337Z" transform="translate(-364.388 -214.914)" fill="#1d2366"/><path d="M873.229,439s-8.734,9.358-2.121,14.574,10.961.5,10.961.5Z" transform="translate(-356.009 -201.7)" fill="#c7daf5"/><path d="M873.229,439s-8.734,9.358-2.121,14.574,10.961.5,10.961.5Z" transform="translate(-356.009 -201.7)" opacity="0.1"/><path d="M977.845,330.1s-1.023.973-2.564,2.408c-2.2,2.053-5.446,5.053-8.329,7.568-3.993,3.475-7.287,6.027-6.108,3.849s.954-5.97.368-9.52c-.044-.237-.081-.474-.125-.7a65.363,65.363,0,0,0-1.928-7.711s6.451-8.335,10.019-11.623c1.329-1.248,2.259-1.759,2.315-.892a28.985,28.985,0,0,0,2.021,6.476c.031.087.062.168.1.256.724,1.872,1.541,3.793,2.258,5.453C976.972,328.2,977.845,330.1,977.845,330.1Z" transform="translate(-390.058 -154.322)" fill="#ffb0b1"/><path d="M973.615,320.206a18.517,18.517,0,0,1-12.4,14.2,64.93,64.93,0,0,0-2.053-8.416s12.147-15.69,12.334-12.515C971.538,314.678,972.486,317.348,973.615,320.206Z" transform="translate(-390.058 -154.327)" opacity="0.1"/><path d="M946.428,352.665,948,350.45s1.042,6.351,4.872,3.55,4.018,21.081,4.018,21.081l-4.111,61.47-29.709-1.778.842-29.7,3.363-14.973,8.316-21.767,4.947-7.193Z" transform="translate(-376.484 -168.394)" opacity="0.1"/><path d="M956.9,375.672l-3.743,55.581-.393,5.889L936.2,436.15l-.624-.037-12.477-.749.842-29.709,3.363-14.973,8.316-21.767,4.947-7.193,5.889-8.5,1.572-2.208s1.042,6.351,4.872,3.55l.081-.056h0C956.727,352.133,956.9,375.672,956.9,375.672Z" transform="translate(-376.495 -168.605)" fill="#1d2366"/><path d="M907.3,406.26s-1.491,3.119-4.486,2.614-2.988,11.23-2.988,11.23-1.99,1.872-3.363.249-4.991,3.862-4.991,3.862l-22.671,1s10.088,4.61,8.11,18.56c0,0,34.251-2.121,35.374-5.359S907.3,406.26,907.3,406.26Z" transform="translate(-356.071 -189.386)" fill="#fff"/><path d="M907.3,406.26s-1.491,3.119-4.486,2.614-2.988,11.23-2.988,11.23-1.99,1.872-3.363.249-4.991,3.862-4.991,3.862l-22.671,1s10.088,4.61,8.11,18.56c0,0,34.251-2.121,35.374-5.359S907.3,406.26,907.3,406.26Z" transform="translate(-356.071 -189.386)" opacity="0.03"/><path d="M777.66,389.76l5.977,5.1,49.2,10.338-6.1-6.226Z" transform="translate(-292.319 -146.602)" fill="#fff"/><path d="M939.187,353.633c-.817,1.248-3.157,7.636-5.11,13.214-1.628,4.648-2.988,8.734-2.988,8.734s-3.175,20.675-4.8,24.412-.742,18.311-.742,18.311L919.5,454.295s-2.739,18.56-6.969,29.646c-4.174,10.912-8.821,16.027-8.965,16.19,1.872-2.533,12.072-52.405,12.072-52.405l3.369-62.9s.493-5.977.992-11.086,10.606-12.084,10.606-12.084l9.745-13.856C941.333,349.11,940.678,351.394,939.187,353.633Z" transform="translate(-369.149 -167.397)" fill="#fff"/><path d="M906.3,478.4s-14.349-.624-21.3-8.971,16.065-3.331,16.065-3.331l5.983,1.373Z" transform="translate(-361.673 -211.331)" fill="#ffb0b1"/><path d="M995.651,533.249a18.18,18.18,0,0,0-.362,8.354c-15.653,1.111-32.4-3.119-32.4-3.119-3.119,2.87-11.336,7.1-11.336,7.1l-4.479-55.525c-2.864-7.486-3.987-46.709-3.987-46.709s.256-2.053.624-5.128a.591.591,0,0,1,.031-.231c1.117-8.591,3.331-24.718,4.417-26.9,1.5-2.995-4.6-10.961-4.6-10.961l2.776-23.676.337-2.857c5.852-2.614,10.338-10.961,10.338-10.961l3.444-6.033h0c3.743-2.4,3.937,21.137,3.937,21.137l-3.743,55.581,12.4-3.425S997.766,526.15,995.651,533.249Z" transform="translate(-384.014 -170.645)" opacity="0.1"/><path d="M1012.167,528.121c-17.063,8.472-48.076.624-48.076.624-3.119,2.87-11.336,7.1-11.336,7.1L948.27,480.32c-2.857-7.486-3.98-46.709-3.98-46.709s3.606-29.266,5.1-32.254a4.806,4.806,0,0,0-.293-3.569,45.154,45.154,0,0,1-2.733-20.893l1.2-10.175.331-2.851c5.858-2.62,10.344-10.968,10.344-10.968l3.119-5.465,5.74-10.069,2.72-4.766.462.418,3.525,3.194,3.743,3.119c4.885,4.118,13.326,11.367,17.681,15.8,3.831,3.905,5.041,19.1,5.39,30.532.231,7.53.094,13.432.094,13.432-3.862,6.357,6.239,57.4,6.239,57.4C1009.3,466.358,1012.167,528.121,1012.167,528.121Z" transform="translate(-384.465 -161.68)" fill="#fff"/><path d="M968.936,364.409s-11.71,22.291-10.35,30.763,5.228,18.061,3.363,20.3a6.893,6.893,0,0,1-5.484,2.739c-1.872.125-6.863,3.612-6.863,3.987s-4.61.374-8.734,2.121a54.384,54.384,0,0,1-10.213,2.739s-11.854-.374-12.958.749-2.24,7.842.125,13.2,4.991,9.358,6.975,10.088,14.574-3.487,24.786-4.486,21.3-9.09,21.3-9.09,12.209-4.367,14.349-11.71-2.614-47.7-2.614-47.7S979.024,359.3,968.936,364.409Z" transform="translate(-373.987 -173.314)" opacity="0.03"/><path d="M966.547,361.411s-11.71,22.3-10.338,30.763,5.228,18.061,3.356,20.307a6.863,6.863,0,0,1-5.478,2.739c-1.872.125-6.863,3.612-6.863,3.987s-4.611.374-8.734,2.115a54.916,54.916,0,0,1-10.213,2.739s-11.854-.374-12.952.749-2.246,7.848.125,13.2,4.991,9.358,6.975,10.088,14.573-3.487,24.786-4.479,21.3-9.1,21.3-9.1,12.2-4.367,14.318-11.7-2.614-47.707-2.614-47.707S976.635,356.307,966.547,361.411Z" transform="translate(-373.096 -172.186)" opacity="0.03"/><path d="M968.354,362.615s-11.71,22.3-10.338,30.763,5.228,18.061,3.363,20.3a6.863,6.863,0,0,1-5.484,2.745c-1.872.125-6.863,3.612-6.863,3.98s-4.6.374-8.734,2.121a54.507,54.507,0,0,1-10.213,2.739s-11.854-.374-12.958.749-2.24,7.848.125,13.2,4.991,9.358,6.975,10.088,14.574-3.487,24.786-4.486,21.3-9.09,21.3-9.09,12.209-4.367,14.349-11.71-2.583-47.7-2.583-47.7S978.435,357.536,968.354,362.615Z" transform="translate(-373.773 -172.642)" fill="#fff"/><path d="M995.5,458.664s-9.358-1.872-6.1,1.248,3.238,5.852,7.224,5.727S995.5,458.664,995.5,458.664Z" transform="translate(-401.172 -208.887)" opacity="0.1"/><path d="M1024.274,566.58s-4.23,2.864,3.862,9.464S1024.274,566.58,1024.274,566.58Z" transform="translate(-414.134 -249.687)" opacity="0.1"/><path d="M1011.891,604.31c0,.374-1.5,13.725,4.105,17.063S1011.891,604.31,1011.891,604.31Z" transform="translate(-409.824 -263.878)" opacity="0.1"/><path d="M863.009,436.59c-4.517.156-14.274,1.535-9.215,10.974,4.473,8.354,11.991,2.77,16.221-1.466a15.94,15.94,0,0,0-7.006-9.508Z" transform="translate(-349.894 -200.794)" fill="#ffb0b1"/><path d="M881.39,451Z" transform="translate(-360.807 -206.214)" fill="#ffb0b1"/><path d="M880.74,451.593l.187-.193Z" transform="translate(-360.562 -206.364)" fill="#ffb0b1"/><path d="M979.523,339.934c-4.791,3.275-8.809,6.039-9.6,6.613-2.146,1.591-6.239,10.93-8.878,15.7-2.1,3.837-8.934,4.823-11.51,5.066l.331-2.851c5.858-2.62,10.344-10.968,10.344-10.968l11.579-20.3,3.987,3.625Z" transform="translate(-386.44 -161.902)" opacity="0.1"/><path d="M979.523,339.334c-4.791,3.275-8.809,6.039-9.6,6.619-2.146,1.585-6.239,10.924-8.878,15.69-2.1,3.837-8.934,4.823-11.51,5.066l.331-2.851c5.858-2.62,10.344-10.968,10.344-10.968l11.579-20.3,3.987,3.612S977.277,337.438,979.523,339.334Z" transform="translate(-386.44 -161.676)" fill="#dce7ff"/><path d="M960.506,306.765a18.5,18.5,0,1,1-15.73-18.292,18.473,18.473,0,0,1,15.73,18.292Z" transform="translate(-376.644 -145.004)" fill="#ffb0b1"/><path d="M993.608,369a16.446,16.446,0,0,1-5.97-6.413c-1.042-2.059-1.734-4.436-3.512-5.9-1.6-1.31-3.743-1.628-5.74-2.215-6.563-1.94-12.066-7.929-12.272-14.767-.1-3.219.9-6.432.449-9.62a10.656,10.656,0,0,0-2.084-4.96,17.08,17.08,0,0,0-1.8-1.94c-.873-.824-1.791-1.622-2.589-2.5a9.686,9.686,0,0,1-1.31-1.778,8.555,8.555,0,0,1-.718-1.653c-1.248-3.818-.112-8.347-1.485-12.209l-.075-.212c-.518-1.373-1.572-2.745-3.038-2.851s-2.72,1.111-4.117,1.653c-2.926,1.135-6.083-.8-8.522-2.77s-5.191-4.224-8.291-3.787c-2.053.293-3.675,1.691-5.565,2.414a7.8,7.8,0,0,1-1.316.381,18.5,18.5,0,0,1,35.261,10.756c.031.087.062.168.1.256.724,1.872,1.541,3.793,2.258,5.453l3.525,3.194,3.743,3.119c4.885,4.118,13.326,11.367,17.68,15.8C992.049,342.375,993.247,357.56,993.608,369Z" transform="translate(-377.454 -145.004)" opacity="0.1"/><path d="M924.323,279.538c.892-1.815,1.335-3.849,2.4-5.571a13.274,13.274,0,0,1,7.106-5.06c7.331-2.527,22.821-6.2,27.45,0a13.5,13.5,0,0,0,2.926,3.494,21.732,21.732,0,0,0,3.176,1.429c2.951,1.385,4.835,4.4,5.839,7.486s1.3,6.388,2.04,9.564a70.341,70.341,0,0,0,4.242,11.772c1.94,4.529,4,9.227,7.742,12.428,5.109,4.367,6.239,10.55,10.98,15.341,5.615,5.69,5.434,15.079,2.539,22.534A6.186,6.186,0,0,0,1000.1,356a5.97,5.97,0,0,0,1.653,2.82l3.07,3.462a17.26,17.26,0,0,1-18.86-8.7c-1.042-2.059-1.734-4.43-3.519-5.9-1.6-1.31-3.743-1.622-5.733-2.209-6.563-1.946-12.066-7.942-12.272-14.78-.1-3.213.9-6.426.449-9.608a10.606,10.606,0,0,0-2.09-4.991c-1.716-2.24-4.3-3.743-5.7-6.239-2.365-4.174-.568-9.6-2.271-14.075-.524-1.373-1.572-2.745-3.038-2.851s-2.72,1.111-4.124,1.653c-2.92,1.135-6.077-.792-8.516-2.77s-5.191-4.224-8.3-3.781c-2.053.287-3.668,1.684-5.559,2.414-1.4.537-4.23,1.017-5.453-.162C917.261,287.917,923.244,281.759,924.323,279.538Z" transform="translate(-375.029 -136.443)" fill="#591d4b"/><path d="M987.621,355.185c-1.048-2.059-1.734-4.43-3.519-5.889-1.6-1.31-3.743-1.628-5.74-2.215-6.557-1.94-12.059-7.936-12.272-14.773-.1-3.213.9-6.432.455-9.614a10.669,10.669,0,0,0-2.09-4.96c-1.722-2.24-4.311-3.743-5.7-6.239-2.364-4.167-.568-9.589-2.277-14.075-.518-1.366-1.572-2.739-3.032-2.851s-2.726,1.117-4.124,1.659c-2.92,1.135-6.083-.8-8.516-2.77s-5.2-4.224-8.3-3.787c-2.053.293-3.675,1.691-5.559,2.414-1.4.536-4.236,1.023-5.459-.156-2.57-2.5,3.413-8.641,4.486-10.849.892-1.822,1.335-3.849,2.408-5.571.056-.094.119-.187.181-.281a9.907,9.907,0,0,0-2.053,2.333c-1.067,1.722-1.51,3.743-2.4,5.571-1.079,2.208-7.062,8.372-4.486,10.849,1.248,1.185,4.055.7,5.453.162,1.872-.73,3.506-2.127,5.559-2.414,3.119-.443,5.864,1.809,8.3,3.781s5.615,3.905,8.522,2.77c1.4-.543,2.62-1.766,4.117-1.653s2.5,1.479,3.038,2.851c1.7,4.479-.094,9.9,2.271,14.075,1.4,2.452,3.987,3.987,5.7,6.239a10.606,10.606,0,0,1,2.09,4.991c.455,3.182-.549,6.395-.449,9.608.206,6.863,5.708,12.833,12.272,14.78,1.978.586,4.136.9,5.733,2.209,1.791,1.466,2.5,3.837,3.519,5.9a17.26,17.26,0,0,0,18.86,8.7l-1.447-1.635A17.446,17.446,0,0,1,987.621,355.185Z" transform="translate(-374.948 -140.102)" opacity="0.1"/><path d="M954.877,354.2c-.817,1.248-3.157,7.636-5.109,13.214-1.828-.711-3.487-5.247-3.487-5.247l9.745-13.862C957.023,349.673,956.368,351.95,954.877,354.2Z" transform="translate(-385.214 -167.585)" opacity="0.1"/><path d="M955.477,353.6c-.817,1.248-3.157,7.636-5.109,13.214-1.828-.7-3.487-5.247-3.487-5.247l9.745-13.856C957.623,349.076,956.968,351.36,955.477,353.6Z" transform="translate(-385.44 -167.364)" fill="#dce7ff"/><path d="M866.537,447.787l-5.4-17.038a1.591,1.591,0,0,1,1.036-2h0a1.6,1.6,0,0,1,2,1.036l5.4,17.019-.537,3.562Z" transform="translate(-353.16 -197.816)" fill="#be8b87"/><path d="M861.8,429.266h0a1.6,1.6,0,0,1,2,1.036l5.4,17.019-.406,2.67.393.412.536-3.562L864.3,429.822a1.6,1.6,0,0,0-2-1.036h0a1.6,1.6,0,0,0-.83.624,2.173,2.173,0,0,1,.331-.143Z" transform="translate(-353.314 -197.831)" fill="#fff" opacity="0.1"/><path d="M822.6,400.1l3.032-.961-.443,2.92-.094.643-.886-.923Z" transform="translate(-309.223 -150.13)" fill="#efc8c4"/><path d="M872.42,461.877a.625.625,0,0,1,.193-.162.274.274,0,0,1,.293,0,.774.774,0,0,1,.106.168.536.536,0,0,0,.387.256l-.094.624Z" transform="translate(-357.433 -210.228)" fill="#727a9c"/><path d="M861.13,441.7s10.837-.062,8.285,4.548a9.747,9.747,0,0,1-6.538,5.166Z" transform="translate(-353.187 -202.716)" fill="#ffb0b1"/><path d="M667.151,110.05h-.468a53.362,53.362,0,0,0-44.551,24.387,53.362,53.362,0,0,0-44.551-24.387h-.468a53.029,53.029,0,0,0-52.524,53c0,17.35,7.6,41.968,22.416,62.225,28.23,38.6,75.127,72.369,75.127,72.369s46.9-33.764,75.12-72.369c14.823-20.257,22.416-44.875,22.416-62.225a53.029,53.029,0,0,0-52.518-53Zm-6.694,118.193a10.512,10.512,0,0,1-9.776-6.75h-11.13a3.519,3.519,0,0,1-3.313-2.4l-3.419-10.3L622,246.6a3.5,3.5,0,0,1-3.356,2.527h-.218a3.456,3.456,0,0,1-3.244-2.895l-11.149-67.054-8.148,39.678a3.475,3.475,0,0,1-3.375,2.639H576.833a3.487,3.487,0,1,1,0-6.969h12.933l11.542-53.347a3.5,3.5,0,0,1,6.863.287l11.386,68.4,9.7-33.82a3.431,3.431,0,0,1,3.263-2.5h.069a3.481,3.481,0,0,1,3.306,2.4l6.183,18.6h8.472a10.456,10.456,0,1,1,9.932,13.725Z" transform="translate(-226.604 -77.973)" fill="#ff6767"/></g></svg>