<svg xmlns="http://www.w3.org/2000/svg" xmlns:xlink="http://www.w3.org/1999/xlink" width="140" height="140" viewBox="0 0 140 140"><defs><filter id="a" x="0" y="0" width="140" height="140" filterUnits="userSpaceOnUse"><feOffset dy="3" input="SourceAlpha"/><feGaussianBlur stdDeviation="10" result="b"/><feFlood flood-opacity="0.161"/><feComposite operator="in" in2="b"/><feComposite in="SourceGraphic"/></filter></defs><g transform="translate(-877.506 -867.506)"><g transform="matrix(1, 0, 0, 1, 877.51, 867.51)" filter="url(#a)"><circle cx="40" cy="40" r="40" transform="translate(30 27)" fill="#fff"/></g><path d="M24.072,18.173l-3.736,7.473a1.2,1.2,0,0,1-2.173-.045l-4.278-9.495L11.63,21.5H4.556l13.72,14.02a1.339,1.339,0,0,0,1.932,0L33.935,21.5h-8.2ZM35.611,5.4l-.18-.188a9.848,9.848,0,0,0-14.088,0l-2.1,2.15-2.1-2.143a9.835,9.835,0,0,0-14.088,0l-.18.18a10.322,10.322,0,0,0-.549,13.69h7.7l2.7-6.48a1.205,1.205,0,0,1,2.21-.03l4.375,9.72L23,14.94a1.2,1.2,0,0,1,2.15,0l2.075,4.15H36.16A10.322,10.322,0,0,0,35.611,5.4Z" transform="translate(928.26 916.938)" fill="#ff6767"/></g></svg>