<svg xmlns="http://www.w3.org/2000/svg" width="204.667" height="213.022" viewBox="0 0 204.667 213.022"><path d="M345.306,387.954l0,.1,4.8,50.81H315.044L310.5,407.654l-2,30.406-36.007-.4,3.825-39.92,3.253-18.5v0l.488-2.785H344.35l.084,1.008Z" transform="translate(-163.472 -225.838)" fill="#2f2e41"/><path d="M215.279,305.825c3.713.677,7.586-3.505,8.649-9.341a14.845,14.845,0,0,0-.312-7l.569-3.364,9.555-45.253s17.6-35.2,17.6-41.308a11.122,11.122,0,0,0-5.09-9.107l-6.887.064-21.6,52.75-3.89,38.98-.629,5.348a14.845,14.845,0,0,0-2.762,6.444c-1.063,5.835,1.085,11.114,4.8,11.791Z" transform="translate(-126.108 -114.254)" fill="#ffb6b6"/><path d="M355.1,113.751l-6.4-14.8-20.8,3.6-1.4,17.416Z" transform="translate(-195.868 -59.361)" fill="#ffb6b6"/><path d="M355.1,113.751l-6.4-14.8-20.8,3.6-1.4,17.416Z" transform="translate(-195.868 -59.361)" opacity="0.1"/><path d="M341.814,149.471s-14.8-27.606-17.6-30.406c-1.247-1.247-3.206-1.264-5-.9l-20.607-7.1-6.985-3.924-.46,7.466-22.931,4.116a22.413,22.413,0,0,1,.77-6.285l-8.4,9.83-16.4,8,.009.072a6.526,6.526,0,0,0-3.21,2.328c-3.2,4.4-12,58.012-12,58.012l18.8,4,2.559-16.059L252.2,193.08l1.4,27.005s25.605,22,38.008,14,27.606-7.6,27.606-7.6l.379-12.518c.27-.432.421-.685.421-.685l-.4-44.4V157.066c3.048,4.246,6.726,7.9,11,9.608,14,5.6,11.2-17.2,11.2-17.2Z" transform="translate(-137.376 -64.275)" fill="#e6e6e6"/><circle cx="19.139" cy="19.139" r="19.139" transform="translate(121.112 7.514)" fill="#ffb6b6"/><path d="M329.171,32.062s1.664-5.825,5.409-5.409,4.577-2.913,3.745-4.577-2.5-9.986-2.5-9.986.832-5.825-4.161-6.657-6.657-1.664-7.489-3.329S310.864-1.223,306.7,1.273s-7.489,7.286-10.4,8.636-5.409,3.846-3.745,8.007,4.078,12.3,4.078,12.3,4.243-1.48,5.076,1.016-2.5-.832,1.664-7.489,4.161-13.314,10.818-10.818,14.146,1.664,13.314,6.657,1.664,12.482,1.664,12.482Z" transform="translate(-175.19)" fill="#2f2e41"/><g transform="translate(0 91.669)"><path d="M152.811,321.247H7.455A7.463,7.463,0,0,1,0,313.792V236.58a7.463,7.463,0,0,1,7.455-7.455H152.811a7.463,7.463,0,0,1,7.455,7.455v77.213a7.463,7.463,0,0,1-7.455,7.455Z" transform="translate(0 -229.125)" fill="#fff"/><path d="M152.811,321.247H7.455A7.463,7.463,0,0,1,0,313.792V236.58a7.463,7.463,0,0,1,7.455-7.455H152.811a7.463,7.463,0,0,1,7.455,7.455v77.213a7.463,7.463,0,0,1-7.455,7.455ZM7.455,230.37a6.217,6.217,0,0,0-6.21,6.21v77.213A6.217,6.217,0,0,0,7.455,320H152.811a6.217,6.217,0,0,0,6.21-6.21V236.58a6.217,6.217,0,0,0-6.21-6.21H7.455Z" transform="translate(0 -229.125)" fill="#3f3d56"/><circle cx="1.867" cy="1.867" r="1.867" transform="translate(139.725 5.602)" fill="#3f3d56"/><circle cx="1.867" cy="1.867" r="1.867" transform="translate(144.704 5.602)" fill="#3f3d56"/><circle cx="1.867" cy="1.867" r="1.867" transform="translate(149.684 5.602)" fill="#3f3d56"/><path d="M25.049,323.251a.935.935,0,0,0-.934.934.942.942,0,0,0,.934.934H164.774a.935.935,0,0,0,.934-.934.942.942,0,0,0-.934-.934Z" transform="translate(-14.467 -285.593)" fill="#e6e6e6"/><path d="M146.878,322.473v2.49H24.582a1.254,1.254,0,0,1-1.245-1.245,1.249,1.249,0,0,1,1.245-1.245Z" transform="translate(-14 -285.126)" fill="#ff6767"/><path d="M349.4,303.338H336.951a2.49,2.49,0,1,1,0-4.98H349.4a2.49,2.49,0,0,1,0,4.98Z" transform="translate(-200.649 -270.659)" fill="#e6e6e6"/><path d="M80.743,270.666H25.049a2.49,2.49,0,1,1,0-4.98H80.743a2.49,2.49,0,1,1,0,4.98Z" transform="translate(-13.534 -251.059)" fill="#e6e6e6"/><path d="M25.049,393.262a.935.935,0,0,0-.934.934.942.942,0,0,0,.934.934H164.774a.935.935,0,0,0,.934-.934.942.942,0,0,0-.934-.934Z" transform="translate(-14.467 -327.594)" fill="#e6e6e6"/><path d="M98.95,392.484v2.49H24.582a1.254,1.254,0,0,1-1.245-1.245,1.249,1.249,0,0,1,1.245-1.245Z" transform="translate(-14 -327.127)" fill="#ff6767"/><path d="M349.4,373.349H336.951a2.49,2.49,0,1,1,0-4.98H349.4a2.49,2.49,0,0,1,0,4.98Z" transform="translate(-200.649 -312.66)" fill="#e6e6e6"/></g><g transform="translate(151.05 9.098)"><ellipse cx="19.495" cy="19.084" rx="19.495" ry="19.084" fill="#68d668"/><path d="M421.181,45.713,413.4,59.891q-2.481-4.384-4.957-8.771a.9.9,0,0,0-1.556.91c1.922,3.385,3.824,6.782,5.747,10.167a.909.909,0,0,0,1.556,0l8.553-15.574c.559-1.017-1-1.928-1.556-.91Z" transform="translate(-395.071 -36.256)" fill="#fff"/></g><path d="M437.485,149.244l-19.423-9.291s-.78-6.219-4.422-8.437c-.619-1.477-1.332-3.1-1.979-4.386-1.6-3.18.8-9.181-1.2-9.181s-4.958,6.311-4.8,8c.12,1.3,1.192,3.563,1.414,5.545a17.112,17.112,0,0,0-5.7,3.752,4.211,4.211,0,0,0-1.1,4.205c1.268,4.34,4.437,13.3,8.986,13.3,6,0,7.6-1.2,7.6-1.2s12.4,15.6,21.6,16.8-.981-19.115-.981-19.115Z" transform="translate(-240.03 -70.76)" fill="#ffb6b6"/></svg>